<svg width="327" height="399" viewBox="0 0 327 399" fill="none" xmlns="http://www.w3.org/2000/svg">
<path fill-rule="evenodd" clip-rule="evenodd" d="M144.235 397.814C123.465 397.814 102.837 397.813 82.2077 397.815C81.1389 397.815 80.0478 397.791 79.516 396.807C79.1458 396.122 80.3078 394.927 81.2048 394.98C81.9399 395.023 82.6757 395.09 83.4113 395.09C135.36 395.095 272.429 395.094 324.377 395.109C324.837 395.11 325.477 395.207 325.713 395.474C326.061 395.869 326.419 396.789 326.25 396.905C325.623 397.336 324.784 397.775 324.022 397.778C309.893 397.827 210.643 397.814 196.514 397.814C179.135 397.814 161.756 397.814 144.235 397.814Z" fill="#1C1C1C"/>
<path fill-rule="evenodd" clip-rule="evenodd" d="M40.2546 398.515C27.442 398.515 14.7708 398.517 2.09962 398.51C1.30452 398.51 0.423693 398.707 0.102077 397.657C-0.219652 396.606 0.221404 395.843 1.39325 395.706C1.7176 395.668 2.0519 395.7 2.38163 395.7C24.3325 395.7 46.2834 395.701 68.2343 395.697C69.2474 395.696 70.2655 395.605 70.2227 396.968C70.1894 398.031 69.5592 398.515 68.0936 398.515C58.8611 398.515 49.6285 398.515 40.2546 398.515Z" fill="#1C1C1C"/>
<path d="M203.643 32.1337C202.725 32.6185 201.807 33.1033 200.889 33.588C200.501 33.7929 200.007 33.4039 199.96 32.9677C199.914 32.5316 200.172 32.1216 200.462 31.7932C201.287 30.8627 202.479 30.2674 203.719 30.1679C204.001 30.1453 204.311 30.1563 204.526 30.3387C204.829 30.5948 204.805 31.0947 204.582 31.4228C204.359 31.7509 203.994 31.9485 203.643 32.1337Z" fill="#1C1C1C"/>
<path d="M208.36 47.2606C208.874 46.7486 209.876 47.0955 210.376 46.5696C210.805 46.1191 210.55 45.365 210.166 44.8759C209.782 44.3868 209.268 43.9319 209.2 43.314C209.131 42.6961 209.949 42.0548 210.357 42.5237C211.016 43.2799 211.615 44.1335 211.816 45.1155C212.017 46.0976 211.739 47.231 210.925 47.8161C210.11 48.4011 208.758 48.1804 208.36 47.2606Z" fill="#1C1C1C"/>
<path d="M216.862 38.1638C216.668 37.7648 216.644 37.2868 216.796 36.8701C216.893 36.6047 217.059 36.3648 217.274 36.1807C217.969 35.5838 219.167 35.7266 219.703 36.4701C220.238 37.2137 219.993 38.3943 219.206 38.8637C218.419 39.3331 217.263 38.9878 216.862 38.1638Z" fill="#1C1C1C"/>
<path d="M204.743 35.3992C205.306 35.2635 205.926 35.3844 206.397 35.7218C206.773 35.9909 207.052 36.3924 207.172 36.8383C207.451 37.8676 206.761 39.0572 205.728 39.3263C204.696 39.5953 203.512 38.894 203.253 37.8598C202.993 36.8255 203.706 35.6489 204.743 35.3992Z" fill="#1C1C1C"/>
<path d="M288.811 61.7936C288.825 61.2875 288.843 60.7657 289.053 60.3051C289.264 59.8446 289.719 59.4565 290.224 59.4854C290.73 59.5142 291.167 60.1023 290.931 60.5501C290.124 62.0792 290.003 63.9545 290.608 65.5742C290.847 66.212 289.767 66.6553 289.254 66.2078C288.741 65.7602 288.72 64.9837 288.74 64.3031C288.763 63.4666 288.787 62.6301 288.811 61.7936Z" fill="#1C1C1C"/>
<path d="M210.818 56.69C209.151 58.3374 206.512 58.9177 204.307 58.1215C202.103 57.3252 200.444 55.1926 200.216 52.8609C200.134 52.0174 200.302 51.0302 201.031 50.5972C202.039 49.9987 203.249 50.8361 204.235 51.47C205.71 52.4181 207.437 52.97 209.188 53.0528C209.966 53.0896 210.846 53.074 211.389 53.6315C212.195 54.4579 211.638 55.8786 210.818 56.69ZM210.705 54.9243C210.338 54.4092 209.608 54.3626 208.977 54.3147C206.798 54.149 204.668 53.3732 202.893 52.0986C202.525 51.8346 201.964 52.0931 201.778 52.5057C201.592 52.9182 201.684 53.4021 201.839 53.8276C202.464 55.5549 204.111 56.8676 205.935 57.0932C207.759 57.3189 209.677 56.447 210.705 54.9243Z" fill="#1C1C1C"/>
<path d="M237.373 114.747C233.756 126.741 230.113 138.866 229.335 151.369C228.549 163.995 230.709 176.59 232.094 189.165C237.283 236.276 231.62 283.824 231.079 331.216C231.012 337.094 230.963 343.23 228.258 348.45C225.553 353.669 219.256 357.553 213.752 355.481C213.611 358.508 213.469 361.535 213.328 364.562C214.37 363.12 216.073 362.177 217.849 362.057C222.318 371.702 232.121 378.662 242.705 379.703C246.216 380.049 247.069 385.402 244.696 388.012C242.323 390.623 238.46 391.112 234.942 391.388C223.661 392.274 212.342 392.67 201.027 392.573C196.356 392.534 192.732 387.98 192.063 383.361C191.393 378.741 192.924 374.118 194.433 369.701C195.339 367.051 199.312 364.306 200.044 367.009C199.698 363.099 199.351 359.189 199.005 355.279C196.998 355.091 194.992 354.904 192.985 354.716C192.167 341.603 191.349 328.49 190.531 315.377C180.248 322.193 174.357 334.507 163.562 340.482C157.387 343.901 149.444 345.454 145.961 351.59C150.525 351.807 152.907 357.312 152.78 361.877C152.653 366.442 151.138 371.109 152.458 375.481C154.169 381.146 160.388 386.67 157.307 391.723C154.284 396.682 146.6 393.863 142.067 390.231C129.403 380.083 118.925 367.224 111.546 352.774C118.677 346.908 126.68 342.102 135.212 338.565C137.853 339.946 141.592 337.784 141.709 334.807C136.224 331.879 134.148 324.734 135.245 318.617C136.343 312.5 139.921 307.159 143.415 302.018C151.998 289.389 160.582 276.76 169.165 264.132C175.342 255.043 181.753 243.646 177.017 233.732C137.358 284.885 97.6989 336.039 58.04 387.193C55.1679 390.897 48.1576 388.538 47.4457 383.906C46.7337 379.274 51.5357 374.976 56.2063 375.395C46.5788 368.213 36.9513 361.031 27.3238 353.849C25.457 352.457 23.4477 350.841 23.0533 348.547C22.6387 346.135 24.1531 343.857 25.6008 341.883C38.6134 324.145 52.3535 306.939 66.7749 290.325C70.976 285.484 75.3709 280.586 81.0632 277.639C86.7554 274.691 94.0975 274.067 99.3574 277.73C107.165 283.168 114.972 288.605 122.779 294.043C138.204 274.009 153.629 253.974 169.054 233.94C163.344 225.327 169.18 213.801 167.941 203.543C166.589 192.34 156.803 183.358 156.085 172.097C155.734 166.595 151.163 162.262 146.308 159.645C141.453 157.028 136.01 155.5 131.481 152.353C121.256 145.247 117.916 131.015 120.663 118.874C123.411 106.734 131.129 96.3411 139.421 87.0547C147.714 77.7683 156.848 69.0838 163.414 58.5074C169.44 48.8016 173.092 37.8364 178.201 27.6192C183.311 17.4019 190.375 7.50656 200.71 2.62879C211.044 -2.24898 225.16 -0.464755 231.499 9.03926C236.611 16.7029 235.516 26.9213 232.77 35.7136C230.025 44.5059 225.807 53.0057 225.196 62.196C224.584 71.3862 228.969 81.8725 237.839 84.3693C251.404 88.187 257.252 103.774 261.138 117.312C267.499 104.176 273.86 91.0411 280.221 77.9059C275.754 77.4731 271.288 77.0403 266.821 76.6075C266.879 69.0979 267.264 61.6642 267.388 54.1698C267.412 52.7372 268.504 51.5275 269.932 51.412C285.31 50.1678 280.417 56.2019 296.071 54.4846C298.244 54.8241 300.706 56.8665 302.384 58.2872C307.518 62.6342 302.661 70.7161 298.247 75.7919C283.518 92.7293 274.228 114.32 272.058 136.655C271.714 140.2 271.512 143.878 269.874 147.041C268.236 150.204 264.668 152.706 261.212 151.84C258.131 151.068 256.245 148.052 254.68 145.291C248.911 135.11 243.142 124.928 237.373 114.747ZM153.707 340.206C155.395 341.013 157.228 341.746 159.084 341.511C161.411 341.217 163.26 339.485 164.929 337.839C169.828 333.01 174.698 328.151 179.539 323.263C194.075 308.585 208.956 292.535 213.271 272.339C214.422 266.953 214.773 261.433 215.122 255.937C215.896 243.71 216.67 231.42 215.468 219.227C214.856 213.019 213.831 206.306 216.952 200.904C217.044 211.824 217.137 222.745 217.229 233.666C217.33 245.66 217.424 257.737 215.307 269.544C213.19 281.35 208.704 293.002 200.66 301.904C196.384 306.635 190.724 311.742 191.792 318.028C193.684 329.161 194.269 340.517 193.532 351.786C193.471 352.731 194.686 353.154 195.628 353.258C203.756 354.156 211.982 354.162 220.11 353.276C222.93 352.968 226.437 351.868 226.687 349.045C231.017 300.316 232.82 251.363 232.087 202.448C231.957 193.779 231.734 185.013 229.495 176.637C229.268 175.788 228.616 174.726 227.802 175.056C215.56 180.015 201.164 179.349 189.433 173.281C185.974 179.023 182.709 184.881 179.647 190.843C177.922 194.201 176.233 198.137 177.702 201.614C180.483 208.199 180.969 215.727 179.058 222.616C177.864 226.921 175.888 231.944 178.637 235.468C181.41 239.024 181.581 244.072 180.222 248.371C178.863 252.67 176.183 256.407 173.585 260.093C159.946 279.441 147.443 299.588 136.16 320.397C134.353 323.73 136.922 327.724 139.634 330.374C143.746 334.39 148.521 337.726 153.707 340.206ZM190.673 84.0233C189.98 83.4461 189.245 82.8435 188.356 82.6921C187.533 82.5519 186.701 82.8207 185.909 83.086C183.305 83.9582 180.701 84.8303 178.098 85.7025C175.844 86.4574 173.547 87.2348 171.647 88.663C169.395 90.3569 167.88 92.8297 166.459 95.2627C164.434 98.7276 162.488 102.238 160.622 105.79C160.268 106.463 159.908 107.177 159.938 107.936C159.968 108.712 160.401 109.409 160.834 110.053C164.534 115.559 169.32 120.333 174.835 124.022C175.038 124.158 175.254 124.297 175.498 124.315C175.829 124.34 176.132 124.139 176.394 123.934C179.914 121.18 181.168 115.898 179.261 111.857C180.008 111.352 180.786 112.462 181.009 113.335C185.864 132.284 189.02 151.667 190.425 171.176C190.539 172.761 192.385 173.523 193.923 173.923C199.552 175.384 205.27 176.702 211.085 176.827C216.899 176.952 222.87 175.811 227.767 172.675C228.198 172.399 228.678 171.958 228.524 171.47C225.471 161.81 225.435 151.395 227.011 141.388C228.587 131.38 231.724 121.693 234.941 112.086C235.168 111.409 235.698 110.573 236.368 110.819C237.422 113.882 239.636 116.53 242.464 118.111C246.772 114.552 251.967 112.075 257.444 110.966C255.386 106.382 253.328 101.797 251.27 97.2126C250.013 94.4124 248.684 91.5153 246.346 89.5255C243.956 87.4913 240.801 86.6515 237.761 85.8697C231.861 84.3525 225.962 82.8354 220.062 81.3182C218.862 81.0097 217.446 80.7454 216.5 81.5457C215.471 82.4168 215.61 84.0058 215.757 85.3458C216.285 90.17 215.719 95.1105 214.116 99.6911C214.008 99.9987 213.874 100.331 213.588 100.487C213.156 100.722 212.633 100.441 212.224 100.167C204.768 95.1629 197.571 89.7721 190.673 84.0233ZM152.113 159.839C147.022 140.504 152.299 119.833 160.746 101.709C163.004 96.8667 165.537 92.0568 169.235 88.1991C172.933 84.3415 177.966 81.4964 183.311 81.4509C190.192 81.3924 194.778 73.8997 195.379 67.0486C195.981 60.1976 194.05 53.3107 194.659 46.4603C194.982 42.8196 196.015 39.2852 196.737 35.7021C197.321 32.8027 197.703 29.8624 197.878 26.9099C197.914 26.3058 197.922 25.6406 197.541 25.17C196.952 24.4412 195.836 24.5881 194.899 24.555C193.962 24.5219 192.796 23.7983 193.149 22.9301C203.785 24.8297 215.185 21.9347 223.624 15.1915C224.442 17.5799 219.353 18.9039 220.103 21.3149C222.476 28.953 224.123 36.9694 223.318 44.9267C222.513 52.8839 219 60.8238 212.62 65.6525C211.972 66.1432 211.257 66.6546 211.012 67.4296C210.824 68.0266 210.953 68.6719 211.083 69.2843C212.039 73.778 213.891 79.176 218.427 79.9204C222.166 80.534 225.904 81.1476 229.643 81.7612C226.565 79.0259 224.417 75.2648 223.624 71.2256C222.971 67.8997 223.221 64.456 223.8 61.1165C225.127 53.4596 228.142 46.214 230.354 38.7642C232.566 31.3144 233.973 23.3233 232.01 15.8041C230.047 8.28485 224.074 1.80684 216.347 0.943469C213.758 0.654266 211.044 0.63674 208.537 1.34088C196.063 4.84399 187.129 15.8622 181.171 27.362C175.213 38.8618 171.334 51.4432 164.315 62.3283C158.342 71.5906 150.305 79.2983 142.779 87.3506C135.252 95.4029 128.036 104.111 124.262 114.465C120.489 124.819 120.683 137.184 127.212 146.064C132.96 153.88 142.61 157.864 152.113 159.839ZM88.6025 277.562C81.8174 279.436 75.5254 283.065 70.5067 287.998C68.0341 290.429 65.8768 293.157 63.7268 295.876C51.3959 311.474 39.065 327.072 26.7341 342.67C25.6727 344.013 24.5586 345.502 24.5744 347.213C24.5963 349.588 26.7275 351.329 28.6606 352.711C30.2097 353.817 31.7587 354.924 33.3077 356.031C33.9744 356.507 34.988 356.951 35.5099 356.319C56.162 331.328 76.8142 306.336 97.4663 281.344C97.9877 280.713 98.8236 280.02 99.5187 280.452C100.343 280.965 99.787 282.233 99.1681 282.981C78.5818 307.862 57.9955 332.744 37.4092 357.625C36.8034 358.357 37.6375 359.387 38.3983 359.956C40.577 361.587 42.7556 363.218 44.9342 364.849C45.2968 365.12 45.7157 365.407 46.1625 365.332C46.5614 365.265 46.852 364.929 47.107 364.616C68.0238 338.871 88.9405 313.127 109.857 287.383C105.536 284.278 101.215 281.173 96.8938 278.067C94.5662 276.395 91.3656 276.799 88.6025 277.562ZM49.029 367.94C53.0919 371.033 57.1547 374.126 61.2176 377.219C61.5122 377.443 61.8437 377.679 62.213 377.651C62.6481 377.618 62.9626 377.236 63.2229 376.886C83.1406 350.097 103.058 323.308 122.976 296.518C119.568 294.108 116.159 291.697 112.75 289.287C112.488 289.101 112.187 288.906 111.87 288.961C111.581 289.011 111.371 289.253 111.186 289.48C90.3999 315.038 69.6136 340.596 48.8273 366.153C48.5962 366.437 48.3511 366.768 48.4007 367.131C48.4481 367.478 48.7496 367.727 49.029 367.94ZM165.901 143.258C166.896 140.13 168.358 137.171 169.914 134.28C171.431 131.463 173.043 128.697 174.747 125.989C168.788 121.209 162.705 116.289 158.746 109.758C155.809 118.124 153.048 126.636 152.115 135.453C150.014 155.304 157.3 174.911 165.862 192.946C167.757 196.938 169.76 201.047 169.925 205.463C170.083 209.668 168.554 213.74 168.018 217.914C167.334 223.246 168.322 228.78 170.807 233.548C171.221 234.34 171.729 235.162 172.553 235.51C173.377 235.857 174.56 235.435 174.648 234.545C174.992 231.067 176.378 227.788 177.24 224.401C179.523 215.422 178.067 205.89 175.446 197.004C172.825 188.117 169.064 179.591 166.618 170.655C164.172 161.719 163.093 152.087 165.901 143.258ZM213.388 63.1406C215.442 61.7234 216.739 59.4624 217.786 57.1984C220.284 51.8003 221.751 45.9283 222.085 39.9905C222.156 38.7258 222.172 37.4237 221.738 36.2335C221.304 35.0433 220.331 33.9747 219.081 33.7662C218.369 33.6475 218.455 32.45 219.105 32.1352C219.754 31.8205 220.522 32.0938 221.19 32.3682C220.984 29.004 220.235 25.6735 218.982 22.5444C218.67 21.7646 217.968 20.841 217.199 21.179C212.064 23.4341 206.495 24.6958 200.89 24.8739C199.873 24.9062 199.709 26.3306 199.776 27.345C200.335 35.7764 194.285 43.9404 196.105 52.1921C198.185 61.6199 197.394 72.1724 191.605 79.9014C191.229 80.404 190.81 81.008 191.002 81.6056C191.115 81.9567 191.418 82.2079 191.705 82.4387C198.581 87.949 205.569 93.3189 212.664 98.544C214.179 94.5061 214.255 90.0927 214.312 85.7803C214.348 83.0945 214.354 80.2804 213.106 77.9018C212.319 76.4031 211.067 75.1551 210.486 73.5655C210.004 72.2478 210.024 70.8047 209.734 69.432C209.444 68.0592 208.697 66.6241 207.361 66.193C205.284 65.5227 203.312 64.5303 201.536 63.2622C200.933 62.8313 200.298 62.2668 200.285 61.5258C200.272 60.7848 201.371 60.1838 201.772 60.8078C204.15 64.5167 209.761 65.6435 213.388 63.1406ZM258.495 131.727C257.418 130.551 258.136 128.696 258.772 127.233C260.713 122.772 261.29 117.293 258.59 113.245C258.359 112.9 258.077 112.547 257.676 112.437C257.352 112.349 257.009 112.435 256.686 112.526C252.278 113.759 248.083 115.749 244.339 118.383C243.786 118.772 243.176 119.437 243.507 120.026C248 128.029 252.163 136.216 255.982 144.561C256.729 146.193 257.487 147.868 258.741 149.153C259.996 150.438 261.873 151.273 263.606 150.798C266.153 150.101 267.206 147.135 267.873 144.58C271.039 132.447 274.205 120.314 277.371 108.182C278.614 103.419 279.867 98.6263 281.931 94.1572C283.996 89.6882 286.938 85.5138 290.986 82.7098C294.119 80.5391 296.308 77.0518 296.9 73.2871C292.609 72.3416 287.985 72.9975 284.127 75.0988C283.211 75.5974 282.301 76.2144 281.819 77.1385C281.379 77.9821 281.352 78.9701 281.254 79.9162C280.499 87.1932 275.207 93.0287 271.35 99.2469C266.494 107.075 263.746 115.998 261.173 124.842C260.483 127.214 259.787 129.621 258.495 131.727ZM187.878 159.796C186.265 147.023 184.643 134.203 181.307 121.767C177.444 127.7 173.563 133.664 170.704 140.141C167.845 146.617 166.03 153.685 166.518 160.747C166.59 161.793 166.777 162.956 167.613 163.591C168.126 163.98 168.793 164.092 169.432 164.173C175.267 164.912 181.295 164.074 186.706 161.77C187.137 161.586 187.599 161.362 187.803 160.94C187.972 160.591 187.927 160.181 187.878 159.796ZM145.012 359.556C142.727 358.159 142.103 354.285 139.429 354.135C136.708 353.983 134.904 351.116 134.511 348.421C134.119 345.725 134.644 342.954 134.206 340.266C134.177 340.089 134.132 339.894 133.984 339.792C133.758 339.637 133.454 339.794 133.227 339.949C128.795 342.973 124.363 345.998 119.93 349.022C125.191 350.95 127.865 356.619 130.434 361.596C132.935 366.441 135.818 371.089 139.047 375.484C139.628 376.273 140.477 377.15 141.42 376.881C144.557 375.985 147.994 376.179 151.01 377.423C150.883 375.042 148.671 372.966 146.285 372.988C145.652 372.994 145.647 371.894 146.217 371.619C146.788 371.344 147.457 371.609 148.048 371.839C148.638 372.068 149.368 372.243 149.857 371.84C149.822 371.146 149.787 370.452 149.752 369.758C147.972 369.672 146.232 368.92 144.95 367.682C145.834 365.94 149.359 369.157 150.183 367.387C149.104 365.863 147.308 364.87 145.443 364.766C145.064 364.011 146.288 363.406 147.092 363.669C147.895 363.931 148.677 364.553 149.489 364.317C150.88 363.914 150.382 361.64 149.113 360.941C147.844 360.243 146.248 360.311 145.012 359.556ZM225.599 374.488C225.378 373.417 223.869 372.881 223.022 373.572C222.531 373.972 222.3 374.642 221.768 374.984C221.236 375.327 220.254 374.824 220.594 374.291C221.617 373.947 222.161 372.722 221.967 371.662C221.773 370.601 220.989 369.726 220.076 369.152C218.626 370.254 216.734 370.757 214.928 370.522C213.235 370.302 211.889 371.805 210.448 372.72C207.944 374.309 204.429 374.094 202.138 372.213C200.292 370.697 199.263 368.3 197.249 367.015C195.703 371.556 194.693 376.279 194.247 381.055C194.196 381.596 194.41 382.382 194.94 382.256C203.867 380.15 213.146 382.716 222.036 384.973C223.486 385.341 225.417 385.499 226.087 384.164C227.252 381.842 229.351 380.005 231.807 379.158C231.766 378.195 230.334 377.989 229.507 378.485C228.679 378.981 228.069 379.852 227.143 380.121C226.535 379.926 226.734 378.969 227.222 378.558C227.71 378.147 228.397 377.872 228.58 377.26C228.866 376.301 227.71 375.585 226.767 375.251C226.328 376.574 224.879 377.48 223.496 377.298C224.197 376.361 224.898 375.425 225.599 374.488ZM167.076 165.581C167.327 168.631 168.342 171.56 169.348 174.451C171.723 181.271 174.097 188.092 176.472 194.912C177.885 189.211 181.476 184.347 184.425 179.267C187.374 174.187 189.79 168.289 188.512 162.556C181.826 165.504 174.318 166.564 167.076 165.581ZM152.939 392.85C153.72 392.963 154.797 392.812 154.88 392.027C147.713 388.856 142.379 382.644 137.829 376.265C133.863 370.704 130.292 364.861 127.153 358.795C125.754 356.09 124.331 353.215 121.802 351.516C119.272 349.818 115.254 349.913 113.714 352.541C113.455 352.983 113.745 353.534 114.028 353.961C120.155 363.195 126.315 372.47 133.783 380.658C138.988 386.365 145.291 391.749 152.939 392.85ZM279.76 75.0946C279.886 75.0884 280.016 75.0812 280.129 75.0252C280.449 74.8672 280.477 74.4302 280.46 74.0741C280.151 67.5443 279.843 61.0144 279.534 54.4846C279.508 53.94 278.863 54.0768 278.344 53.9093C277.825 53.7419 277.317 53.8084 276.774 53.8583C274.499 54.0671 272.224 54.2758 269.949 54.4846C269.289 54.5452 269.213 54.8077 269.19 55.4703C268.978 61.5145 268.766 67.5587 268.555 73.6029C268.54 74.0103 268.531 74.4412 268.731 74.7967C269.136 75.5182 270.138 75.5682 270.964 75.5275C273.896 75.3832 276.828 75.2389 279.76 75.0946ZM241.854 387.328C238.21 385.839 234.098 386.888 230.167 387.122C219.333 387.768 208.777 382.024 197.985 383.189C196.708 383.327 195.32 383.631 194.531 384.645C193.319 386.205 194.283 388.659 195.965 389.698C197.646 390.736 199.741 390.757 201.718 390.746C210.778 390.696 219.838 390.646 228.898 390.596C233.459 390.571 238.467 390.381 241.854 387.328ZM143.869 336.14C143.75 336.072 143.625 336.001 143.487 335.997C143.25 335.99 143.057 336.179 142.896 336.354C141.163 338.24 139.43 340.126 137.696 342.012C137.303 342.44 136.905 342.874 136.634 343.389C136.317 343.993 136.191 344.678 136.117 345.357C135.923 347.131 136.08 349.009 136.984 350.549C137.888 352.088 139.661 353.2 141.429 352.945C143.631 352.626 145.014 350.506 146.551 348.898C148.89 346.451 152.151 344.828 153.823 341.886C150.505 339.971 147.187 338.055 143.869 336.14ZM211.368 369.761C211.71 369.32 211.993 368.823 212.124 368.281C212.341 367.384 212.128 366.448 211.985 365.537C211.546 362.749 211.756 359.907 211.916 357.089C211.957 356.355 211.73 355.336 210.996 355.382C207.924 355.576 204.831 355.425 201.794 354.931C201.365 354.862 200.973 355.253 200.876 355.675C200.779 356.098 200.896 356.537 201.002 356.957C201.847 360.304 202.094 363.801 201.728 367.234C201.668 367.797 201.592 368.371 201.705 368.926C201.893 369.846 202.583 370.595 203.371 371.108C205.86 372.727 209.547 372.106 211.368 369.761ZM296.071 71.4969C296.794 71.6256 297.652 71.7648 298.165 71.2408C296.013 70.1196 294.419 67.9846 293.955 65.6039C293.491 63.2231 294.168 60.6462 295.742 58.8C295.885 58.6317 296.043 58.4544 296.07 58.2349C296.097 58.0154 295.914 57.7595 295.698 57.808C292.66 58.4907 289.542 58.8169 286.429 58.7777C285.966 58.7719 285.469 58.7676 285.086 59.0278C284.4 59.4943 284.448 60.5026 284.573 61.3227C285.095 64.7596 284.907 67.4872 285.429 70.9241C285.448 71.0473 285.467 71.1729 285.524 71.2842C285.79 71.8131 286.571 71.664 287.13 71.466C289.754 70.5354 293.33 71.0084 296.071 71.4969ZM156.515 389.154C156.203 386.029 155.092 382.987 153.315 380.396C153.087 380.064 152.846 379.736 152.535 379.48C152.158 379.167 151.696 378.976 151.236 378.809C148.64 377.867 145.817 377.56 143.079 377.922C142.527 377.995 141.834 378.264 141.864 378.82C141.876 379.036 142.006 379.225 142.133 379.4C145.428 383.953 149.759 387.754 154.703 390.431C155.118 390.655 155.624 390.874 156.042 390.654C156.535 390.393 156.57 389.709 156.515 389.154ZM53.0112 387.74C55.7622 388.476 58.9293 386.532 59.5174 383.747C60.1056 380.962 57.9946 377.906 55.1807 377.467C54.0646 377.294 52.8938 377.491 51.897 378.022C50.1171 378.97 48.9841 381.014 49.1234 383.025C49.2737 385.193 50.9107 387.178 53.0112 387.74ZM245.287 383.375C245.227 382.905 245.129 382.425 244.864 382.032C244.107 380.905 242.465 380.988 241.108 381.051C238.824 381.156 236.522 380.837 234.353 380.115C233.068 379.688 231.702 380.417 230.597 381.198C229.205 382.182 227.851 383.365 227.248 384.958C228.669 385.609 230.315 385.386 231.87 385.217C234.41 384.941 236.97 384.843 239.524 384.925C240.755 384.965 242.014 385.053 243.145 385.539C243.417 385.655 243.69 385.797 243.986 385.809C244.512 385.831 244.982 385.42 245.179 384.932C245.377 384.444 245.353 383.897 245.287 383.375ZM300.856 70.1084C301.851 69.8349 302.367 68.7495 302.637 67.7542C303.302 65.2951 303.197 62.5419 301.894 60.3526C301.184 59.1603 299.873 58.0925 298.525 58.4226C297.661 58.6341 297.011 59.3883 296.697 60.2196C296.382 61.0509 296.35 61.9589 296.34 62.8476C296.325 64.2213 296.357 65.6205 296.789 66.9248C297.22 68.229 298.11 69.4436 299.383 69.9614C299.849 70.1507 300.372 70.2415 300.856 70.1084ZM150.777 356.216C150.783 355.907 150.786 355.585 150.65 355.307C150.384 354.762 149.707 354.587 149.112 354.473C147.861 354.231 146.61 353.99 145.359 353.748C144.45 353.573 143.19 353.608 142.98 354.509C142.868 354.992 143.16 355.47 143.465 355.861C144.822 357.601 146.727 358.908 148.839 359.55C149.444 359.734 150.24 359.798 150.574 359.261C150.72 359.025 150.73 358.732 150.735 358.454C150.749 357.708 150.763 356.962 150.777 356.216ZM218.847 368.529C219.04 368.436 219.237 368.332 219.365 368.161C219.664 367.76 219.468 367.19 219.237 366.747C218.675 365.673 217.953 364.683 217.101 363.82C216.978 363.696 216.832 363.565 216.656 363.568C216.444 363.571 216.29 363.765 216.172 363.942C215.283 365.282 214.579 366.745 214.089 368.277C213.937 368.753 213.857 369.384 214.279 369.652C215.857 369.599 217.424 369.213 218.847 368.529Z" fill="#1C1C1C"/>
</svg>
